<mxfile host="app.diagrams.net" agent="Mozilla/5.0 (Windows NT 10.0; Win64; x64) AppleWebKit/537.36 (KHTML, like Gecko) Chrome/125.0.0.0 Safari/537.36" version="24.7.17">
  <diagram name="Page-1" id="yjpt2bn9am510HvSyBFy">
    <mxGraphModel dx="3585" dy="1950" grid="1" gridSize="10" guides="1" tooltips="1" connect="1" arrows="1" fold="1" page="1" pageScale="1" pageWidth="850" pageHeight="1100" math="0" shadow="0">
      <root>
        <mxCell id="0" />
        <mxCell id="1" parent="0" />
        <mxCell id="V9rgs4aw34ED6E-Rs0Sx-21" style="edgeStyle=orthogonalEdgeStyle;rounded=0;orthogonalLoop=1;jettySize=auto;html=1;" edge="1" parent="1" source="V9rgs4aw34ED6E-Rs0Sx-1" target="V9rgs4aw34ED6E-Rs0Sx-2">
          <mxGeometry relative="1" as="geometry" />
        </mxCell>
        <mxCell id="V9rgs4aw34ED6E-Rs0Sx-1" value="Start" style="rounded=1;whiteSpace=wrap;html=1;" vertex="1" parent="1">
          <mxGeometry x="365" y="70" width="120" height="60" as="geometry" />
        </mxCell>
        <mxCell id="V9rgs4aw34ED6E-Rs0Sx-20" style="edgeStyle=orthogonalEdgeStyle;rounded=0;orthogonalLoop=1;jettySize=auto;html=1;" edge="1" parent="1" source="V9rgs4aw34ED6E-Rs0Sx-2" target="V9rgs4aw34ED6E-Rs0Sx-6">
          <mxGeometry relative="1" as="geometry" />
        </mxCell>
        <mxCell id="V9rgs4aw34ED6E-Rs0Sx-2" value="int number" style="shape=parallelogram;perimeter=parallelogramPerimeter;whiteSpace=wrap;html=1;fixedSize=1;" vertex="1" parent="1">
          <mxGeometry x="365" y="180" width="120" height="60" as="geometry" />
        </mxCell>
        <mxCell id="V9rgs4aw34ED6E-Rs0Sx-14" style="edgeStyle=orthogonalEdgeStyle;rounded=0;orthogonalLoop=1;jettySize=auto;html=1;" edge="1" parent="1" source="V9rgs4aw34ED6E-Rs0Sx-4" target="V9rgs4aw34ED6E-Rs0Sx-5">
          <mxGeometry relative="1" as="geometry" />
        </mxCell>
        <mxCell id="V9rgs4aw34ED6E-Rs0Sx-4" value="&lt;div&gt;sum += number % 10&lt;/div&gt;number /= 10" style="rounded=0;whiteSpace=wrap;html=1;" vertex="1" parent="1">
          <mxGeometry x="550" y="460" width="120" height="70" as="geometry" />
        </mxCell>
        <mxCell id="V9rgs4aw34ED6E-Rs0Sx-12" style="edgeStyle=orthogonalEdgeStyle;rounded=0;orthogonalLoop=1;jettySize=auto;html=1;entryX=0.5;entryY=0;entryDx=0;entryDy=0;" edge="1" parent="1" source="V9rgs4aw34ED6E-Rs0Sx-5" target="V9rgs4aw34ED6E-Rs0Sx-4">
          <mxGeometry relative="1" as="geometry">
            <mxPoint x="610" y="410" as="targetPoint" />
          </mxGeometry>
        </mxCell>
        <mxCell id="V9rgs4aw34ED6E-Rs0Sx-15" style="edgeStyle=orthogonalEdgeStyle;rounded=0;orthogonalLoop=1;jettySize=auto;html=1;" edge="1" parent="1" source="V9rgs4aw34ED6E-Rs0Sx-5" target="V9rgs4aw34ED6E-Rs0Sx-10">
          <mxGeometry relative="1" as="geometry" />
        </mxCell>
        <mxCell id="V9rgs4aw34ED6E-Rs0Sx-5" value="number &amp;gt; 0" style="rhombus;whiteSpace=wrap;html=1;" vertex="1" parent="1">
          <mxGeometry x="360" y="370" width="140" height="80" as="geometry" />
        </mxCell>
        <mxCell id="V9rgs4aw34ED6E-Rs0Sx-19" style="edgeStyle=orthogonalEdgeStyle;rounded=0;orthogonalLoop=1;jettySize=auto;html=1;" edge="1" parent="1">
          <mxGeometry relative="1" as="geometry">
            <mxPoint x="429.83" y="322" as="sourcePoint" />
            <mxPoint x="429.82999999999987" y="370.0042857142857" as="targetPoint" />
            <Array as="points">
              <mxPoint x="429.83" y="324" />
            </Array>
          </mxGeometry>
        </mxCell>
        <mxCell id="V9rgs4aw34ED6E-Rs0Sx-6" value="int sum = 0;" style="rounded=0;whiteSpace=wrap;html=1;" vertex="1" parent="1">
          <mxGeometry x="365" y="280" width="120" height="50" as="geometry" />
        </mxCell>
        <mxCell id="V9rgs4aw34ED6E-Rs0Sx-9" value="sumIsEven" style="shape=document;whiteSpace=wrap;html=1;boundedLbl=1;" vertex="1" parent="1">
          <mxGeometry x="220" y="560" width="120" height="80" as="geometry" />
        </mxCell>
        <mxCell id="V9rgs4aw34ED6E-Rs0Sx-16" style="edgeStyle=orthogonalEdgeStyle;rounded=0;orthogonalLoop=1;jettySize=auto;html=1;entryX=0.5;entryY=0;entryDx=0;entryDy=0;" edge="1" parent="1" source="V9rgs4aw34ED6E-Rs0Sx-10" target="V9rgs4aw34ED6E-Rs0Sx-9">
          <mxGeometry relative="1" as="geometry" />
        </mxCell>
        <mxCell id="V9rgs4aw34ED6E-Rs0Sx-10" value="bool sumIsEven = number % 2 == 0" style="rounded=0;whiteSpace=wrap;html=1;" vertex="1" parent="1">
          <mxGeometry x="220" y="460" width="120" height="60" as="geometry" />
        </mxCell>
        <mxCell id="V9rgs4aw34ED6E-Rs0Sx-17" value="False" style="text;html=1;align=center;verticalAlign=middle;resizable=0;points=[];autosize=1;strokeColor=none;fillColor=none;" vertex="1" parent="1">
          <mxGeometry x="275" y="358" width="50" height="30" as="geometry" />
        </mxCell>
        <mxCell id="V9rgs4aw34ED6E-Rs0Sx-18" value="True" style="text;html=1;align=center;verticalAlign=middle;resizable=0;points=[];autosize=1;strokeColor=none;fillColor=none;" vertex="1" parent="1">
          <mxGeometry x="540" y="358" width="50" height="30" as="geometry" />
        </mxCell>
      </root>
    </mxGraphModel>
  </diagram>
</mxfile>
